<svg width="23" height="23" viewBox="0 0 23 23" fill="none" xmlns="http://www.w3.org/2000/svg">
<path d="M9.19483 20.9792L8.72087 17.9933C8.4207 17.8827 8.10473 17.7326 7.77296 17.543C7.44119 17.3534 7.14891 17.1559 6.89613 16.9506L4.09978 18.2303L1.89587 14.3438L4.45525 12.4717C4.42365 12.3295 4.4039 12.1675 4.396 11.9858C4.38811 11.8042 4.38416 11.6422 4.38416 11.5C4.38416 11.3579 4.38811 11.1959 4.396 11.0142C4.4039 10.8325 4.42365 10.6706 4.45525 10.5284L1.89587 8.65629L4.09978 4.76983L6.89613 6.04952C7.14891 5.84414 7.44119 5.64666 7.77296 5.45707C8.10473 5.26749 8.4207 5.1253 8.72087 5.03051L9.19483 2.02087H13.5552L14.0292 5.00681C14.3294 5.1174 14.6493 5.26354 14.989 5.44522C15.3286 5.62691 15.617 5.82834 15.8539 6.04952L18.6503 4.76983L20.8542 8.65629L18.2948 10.481C18.3264 10.639 18.3462 10.8089 18.3541 10.9905C18.362 11.1722 18.3659 11.3421 18.3659 11.5C18.3659 11.658 18.362 11.8239 18.3541 11.9977C18.3462 12.1715 18.3264 12.3374 18.2948 12.4954L20.8542 14.3438L18.6503 18.2303L15.8539 16.9506C15.6012 17.1559 15.3128 17.3574 14.989 17.5549C14.6651 17.7523 14.3452 17.8985 14.0292 17.9933L13.5552 20.9792H9.19483ZM11.375 14.5808C12.2282 14.5808 12.9549 14.2806 13.5552 13.6802C14.1556 13.0799 14.4558 12.3532 14.4558 11.5C14.4558 10.6469 14.1556 9.92018 13.5552 9.31983C12.9549 8.71949 12.2282 8.41931 11.375 8.41931C10.5219 8.41931 9.79518 8.71949 9.19483 9.31983C8.59449 9.92018 8.29431 10.6469 8.29431 11.5C8.29431 12.3532 8.59449 13.0799 9.19483 13.6802C9.79518 14.2806 10.5219 14.5808 11.375 14.5808Z" fill="white"/>
</svg>
