<svg width="23" height="23" viewBox="0 0 23 23" fill="none" xmlns="http://www.w3.org/2000/svg">
<path d="M3.31775 19.0833C2.93858 19.0833 2.60681 18.9372 2.32244 18.6449C2.03806 18.3526 1.89587 18.0248 1.89587 17.6614V5.3385C1.89587 4.97513 2.03806 4.64731 2.32244 4.35504C2.60681 4.06276 2.93858 3.91663 3.31775 3.91663H9.97686L11.3987 5.3385H19.4323C19.7957 5.3385 20.1235 5.48464 20.4158 5.77691C20.7081 6.06919 20.8542 6.39701 20.8542 6.76038V17.6614C20.8542 18.0248 20.7081 18.3526 20.4158 18.6449C20.1235 18.9372 19.7957 19.0833 19.4323 19.0833H3.31775ZM10.4034 16.0026H17.9868V15.5523C17.9868 14.8888 17.651 14.3477 16.9796 13.929C16.3082 13.5103 15.38 13.301 14.1951 13.301C13.0102 13.301 12.082 13.5103 11.4106 13.929C10.7391 14.3477 10.4034 14.8888 10.4034 15.5523V16.0026ZM14.1951 11.8791C14.6691 11.8791 15.0759 11.7093 15.4155 11.3696C15.7552 11.03 15.925 10.6231 15.925 10.1492C15.925 9.67522 15.7552 9.26841 15.4155 8.92874C15.0759 8.58907 14.6691 8.41923 14.1951 8.41923C13.7211 8.41923 13.3143 8.58907 12.9747 8.92874C12.635 9.26841 12.4651 9.67522 12.4651 10.1492C12.4651 10.6231 12.635 11.03 12.9747 11.3696C13.3143 11.7093 13.7211 11.8791 14.1951 11.8791Z" fill="white"/>
</svg>
