<svg width="23" height="23" viewBox="0 0 23 23" fill="none" xmlns="http://www.w3.org/2000/svg">
<path d="M11.3986 20.9792C10.1031 20.9792 8.87872 20.7303 7.72542 20.2327C6.57212 19.735 5.56496 19.0596 4.70394 18.2065C3.84291 17.3534 3.16357 16.3502 2.66592 15.1969C2.16826 14.0436 1.91943 12.8192 1.91943 11.5237C1.91943 9.02753 2.76071 6.87891 4.44326 5.07787C6.12581 3.27683 8.21518 2.28152 10.7114 2.09194V4.50912C8.89452 4.68291 7.37785 5.43729 6.16136 6.77227C4.94487 8.10726 4.33662 9.69107 4.33662 11.5237C4.33662 13.4827 5.02386 15.1455 6.39834 16.5121C7.77282 17.8787 9.43957 18.562 11.3986 18.562C12.5361 18.562 13.6104 18.3053 14.6215 17.7918C15.6326 17.2784 16.4937 16.5556 17.2046 15.6234L19.29 16.832C18.3737 18.1433 17.2243 19.1623 15.842 19.8891C14.4596 20.6158 12.9785 20.9792 11.3986 20.9792ZM19.9772 15.5524L17.8918 14.3912C18.0814 13.9014 18.2236 13.4156 18.3184 12.9337C18.4132 12.4519 18.4606 11.974 18.4606 11.5C18.4606 9.66737 17.8563 8.07961 16.6477 6.73673C15.4391 5.39385 13.9343 4.64341 12.1332 4.48542V2.06824C14.6136 2.24202 16.6911 3.22549 18.3658 5.01863C20.0404 6.81177 20.8778 8.94063 20.8778 11.4052C20.8778 12.1162 20.8027 12.8152 20.6526 13.5025C20.5026 14.1897 20.2774 14.873 19.9772 15.5524Z" fill="white"/>
</svg>
