<svg width="24" height="23" viewBox="0 0 24 23" fill="none" xmlns="http://www.w3.org/2000/svg">
<path d="M13.5469 18.1355C13.8155 18.1355 14.0406 18.0446 14.2223 17.8629C14.4039 17.6812 14.4948 17.4561 14.4948 17.1875C14.4948 16.919 14.4039 16.6938 14.2223 16.5122C14.0406 16.3305 13.8155 16.2396 13.5469 16.2396C13.2783 16.2396 13.0532 16.3305 12.8715 16.5122C12.6898 16.6938 12.599 16.919 12.599 17.1875C12.599 17.4561 12.6898 17.6812 12.8715 17.8629C13.0532 18.0446 13.2783 18.1355 13.5469 18.1355ZM16.8646 18.1355C17.1332 18.1355 17.3583 18.0446 17.54 17.8629C17.7217 17.6812 17.8125 17.4561 17.8125 17.1875C17.8125 16.919 17.7217 16.6938 17.54 16.5122C17.3583 16.3305 17.1332 16.2396 16.8646 16.2396C16.596 16.2396 16.3709 16.3305 16.1892 16.5122C16.0075 16.6938 15.9167 16.919 15.9167 17.1875C15.9167 17.4561 16.0075 17.6812 16.1892 17.8629C16.3709 18.0446 16.596 18.1355 16.8646 18.1355ZM3.59375 12.6849V3.44275C3.59375 3.06358 3.73594 2.73181 4.02031 2.44744C4.30469 2.16306 4.63646 2.02087 5.01562 2.02087H19.2344C19.6135 2.02087 19.9453 2.16306 20.2297 2.44744C20.5141 2.73181 20.6562 3.06358 20.6562 3.44275V12.6849H3.59375ZM5.01562 20.9792C4.63646 20.9792 4.30469 20.837 4.02031 20.5526C3.73594 20.2683 3.59375 19.9365 3.59375 19.5573V14.1068H20.6562V19.5573C20.6562 19.9365 20.5141 20.2683 20.2297 20.5526C19.9453 20.837 19.6135 20.9792 19.2344 20.9792H5.01562Z" fill="white"/>
</svg>
