<svg width="25" height="26" viewBox="0 0 25 26" fill="none" xmlns="http://www.w3.org/2000/svg">
<path d="M14.5833 2.58337H6.26038C5.11454 2.58337 4.17704 3.51046 4.17704 4.66671L4.16663 21.3334C4.16663 22.4792 5.10413 23.4167 6.24996 23.4167H18.75C19.8958 23.4167 20.8333 22.4792 20.8333 21.3334V8.83337L14.5833 2.58337ZM13.5416 9.87504V4.14587L19.2708 9.87504H13.5416ZM14.5833 15.0834L16.6666 13.9792V18.2709L14.5833 17.1667V18.2084C14.5833 18.7813 14.1145 19.25 13.5416 19.25H9.37496C8.80204 19.25 8.33329 18.7813 8.33329 18.2084V14.0417C8.33329 13.4688 8.80204 13 9.37496 13H13.5416C14.1145 13 14.5833 13.4688 14.5833 14.0417V15.0834Z" fill="white"/>
</svg>
