<svg width="31" height="32" viewBox="0 0 31 32" fill="none" xmlns="http://www.w3.org/2000/svg">
<path d="M16.2088 23.9761C15.8863 23.9761 15.6121 23.8632 15.3863 23.6374C15.1605 23.4116 15.0476 23.1374 15.0476 22.8148C15.0476 22.4923 15.1605 22.2181 15.3863 21.9923C15.6121 21.7665 15.8863 21.6536 16.2088 21.6536C16.5314 21.6536 16.8056 21.7665 17.0314 21.9923C17.2572 22.2181 17.3701 22.4923 17.3701 22.8148C17.3701 23.1374 17.2572 23.4116 17.0314 23.6374C16.8056 23.8632 16.5314 23.9761 16.2088 23.9761ZM16.2088 17.3957C15.8863 17.3957 15.6121 17.2828 15.3863 17.057C15.1605 16.8312 15.0476 16.5571 15.0476 16.2345C15.0476 15.9119 15.1605 15.6377 15.3863 15.4119C15.6121 15.1862 15.8863 15.0733 16.2088 15.0733C16.5314 15.0733 16.8056 15.1862 17.0314 15.4119C17.2572 15.6377 17.3701 15.9119 17.3701 16.2345C17.3701 16.5571 17.2572 16.8312 17.0314 17.057C16.8056 17.2828 16.5314 17.3957 16.2088 17.3957ZM16.2088 10.8154C15.8863 10.8154 15.6121 10.7025 15.3863 10.4767C15.1605 10.2509 15.0476 9.97672 15.0476 9.65415C15.0476 9.33159 15.1605 9.05741 15.3863 8.83161C15.6121 8.60582 15.8863 8.49292 16.2088 8.49292C16.5314 8.49292 16.8056 8.60582 17.0314 8.83161C17.2572 9.05741 17.3701 9.33159 17.3701 9.65415C17.3701 9.97672 17.2572 10.2509 17.0314 10.4767C16.8056 10.7025 16.5314 10.8154 16.2088 10.8154Z" fill="#272727"/>
</svg>
