<svg width="36" height="36" viewBox="0 0 36 36" fill="none" xmlns="http://www.w3.org/2000/svg">
<path d="M9.4125 30.0001C7.2125 30.0001 5.34375 29.2313 3.80625 27.6938C2.26875 26.1563 1.5 24.2876 1.5 22.0876C1.5 20.1376 2.125 18.4251 3.375 16.9501C4.625 15.4751 6.2125 14.5876 8.1375 14.2876C8.6375 11.8626 9.8125 9.88135 11.6625 8.34385C13.5125 6.80635 15.65 6.0376 18.075 6.0376C20.875 6.0376 23.2375 7.05635 25.1625 9.09385C27.0875 11.1313 28.05 13.5751 28.05 16.4251V17.3251C29.85 17.2751 31.375 17.8563 32.625 19.0688C33.875 20.2813 34.5 21.8126 34.5 23.6626C34.5 25.3876 33.875 26.8751 32.625 28.1251C31.375 29.3751 29.8875 30.0001 28.1625 30.0001H9.4125Z" fill="white"/>
</svg>
