<svg width="21" height="21" viewBox="0 0 21 21" fill="none" xmlns="http://www.w3.org/2000/svg">
<path d="M17.9999 9.31893H11.0416C10.3583 7.37726 8.50825 5.9856 6.33325 5.9856C3.57492 5.9856 1.33325 8.22726 1.33325 10.9856C1.33325 13.7439 3.57492 15.9856 6.33325 15.9856C8.50825 15.9856 10.3583 14.5939 11.0416 12.6523H11.3333L12.9999 14.3189L14.6666 12.6523L16.3333 14.3189L19.6666 10.9523L17.9999 9.31893ZM6.33325 13.4856C4.95825 13.4856 3.83325 12.3606 3.83325 10.9856C3.83325 9.6106 4.95825 8.4856 6.33325 8.4856C7.70825 8.4856 8.83325 9.6106 8.83325 10.9856C8.83325 12.3606 7.70825 13.4856 6.33325 13.4856Z" fill="#2E2E2E"/>
</svg>
