<svg width="34" height="34" viewBox="0 0 34 34" fill="none" xmlns="http://www.w3.org/2000/svg">
<g clip-path="url(#clip0_3_21)">
<rect width="34" height="34" rx="6.21951" fill="white"/>
<g filter="url(#filter0_d_3_21)">
<path d="M5.39026 10.0291C5.39026 7.46716 7.46715 5.39026 10.0291 5.39026H23.9334C28.0225 5.39026 30.1114 10.2968 27.2772 13.2444L13.373 27.7048C10.478 30.7156 5.39026 28.6663 5.39026 24.4896V10.0291Z" fill="#37A0EA"/>
</g>
<g filter="url(#filter1_d_3_21)">
<path d="M24.0488 20.3171C24.0488 16.4242 20.893 13.2683 17 13.2683H16.394C13.7518 13.2683 11.6098 15.4103 11.6098 18.0526V25.7073C11.6098 26.6233 12.3524 27.3659 13.2683 27.3659H17C20.893 27.3659 24.0488 24.21 24.0488 20.3171V20.3171Z" fill="#76DEFC"/>
<path d="M16.5853 11.817C16.5853 10.0996 15.193 8.70728 13.4756 8.70728V8.70728C11.7581 8.70728 10.3658 10.0996 10.3658 11.817V24.256C10.3658 25.9735 11.7581 27.3658 13.4756 27.3658V27.3658C15.193 27.3658 16.5853 25.9735 16.5853 24.2561V11.817Z" fill="#76DEFC"/>
</g>
</g>
<defs>
<filter id="filter0_d_3_21" x="4.56099" y="4.56099" width="26.5084" height="27.0646" filterUnits="userSpaceOnUse" color-interpolation-filters="sRGB">
<feFlood flood-opacity="0" result="BackgroundImageFix"/>
<feColorMatrix in="SourceAlpha" type="matrix" values="0 0 0 0 0 0 0 0 0 0 0 0 0 0 0 0 0 0 127 0" result="hardAlpha"/>
<feOffset dx="0.829268" dy="0.829268"/>
<feGaussianBlur stdDeviation="0.829268"/>
<feComposite in2="hardAlpha" operator="out"/>
<feColorMatrix type="matrix" values="0 0 0 0 0 0 0 0 0 0 0 0 0 0 0 0 0 0 0.05 0"/>
<feBlend mode="normal" in2="BackgroundImageFix" result="effect1_dropShadow_3_21"/>
<feBlend mode="normal" in="SourceGraphic" in2="effect1_dropShadow_3_21" result="shape"/>
</filter>
<filter id="filter1_d_3_21" x="7.87804" y="6.21947" width="17.0001" height="21.9756" filterUnits="userSpaceOnUse" color-interpolation-filters="sRGB">
<feFlood flood-opacity="0" result="BackgroundImageFix"/>
<feColorMatrix in="SourceAlpha" type="matrix" values="0 0 0 0 0 0 0 0 0 0 0 0 0 0 0 0 0 0 127 0" result="hardAlpha"/>
<feOffset dx="-0.829268" dy="-0.829268"/>
<feGaussianBlur stdDeviation="0.829268"/>
<feComposite in2="hardAlpha" operator="out"/>
<feColorMatrix type="matrix" values="0 0 0 0 0 0 0 0 0 0 0 0 0 0 0 0 0 0 0.05 0"/>
<feBlend mode="normal" in2="BackgroundImageFix" result="effect1_dropShadow_3_21"/>
<feBlend mode="normal" in="SourceGraphic" in2="effect1_dropShadow_3_21" result="shape"/>
</filter>
<clipPath id="clip0_3_21">
<rect width="34" height="34" rx="6.21951" fill="white"/>
</clipPath>
</defs>
</svg>
