<svg width="17" height="16" viewBox="0 0 17 16" fill="none" xmlns="http://www.w3.org/2000/svg">
<path d="M14.5436 13.6297C14.3483 13.825 14.0317 13.825 13.8365 13.6297L10.1359 9.92914C9.95039 9.74365 9.65483 9.7365 9.43548 9.88036C9.19387 10.0388 8.92894 10.1703 8.64069 10.2749C8.1967 10.4361 7.72425 10.5166 7.22334 10.5166C6.02154 10.5166 5.00442 10.0999 4.17199 9.26661C3.33956 8.43328 2.92334 7.42772 2.92334 6.24994C2.92334 5.07217 3.34001 4.06661 4.17334 3.23328C5.00667 2.39994 6.01501 1.98328 7.19834 1.98328C8.38167 1.98328 9.38723 2.39994 10.215 3.23328C11.0428 4.06661 11.4567 5.073 11.4567 6.25244C11.4567 6.72855 11.3789 7.18883 11.2233 7.63328C11.1153 7.94206 10.9697 8.23743 10.7865 8.51939C10.6473 8.73366 10.6609 9.01975 10.8422 9.19972L14.5671 12.8964C14.7636 13.0914 14.7642 13.4091 14.5684 13.6048L14.5436 13.6297ZM7.20667 9.51661C8.10945 9.51661 8.87681 9.19717 9.50876 8.55828C10.1407 7.91939 10.4567 7.14994 10.4567 6.24994C10.4567 5.34994 10.1407 4.5805 9.50876 3.94161C8.87681 3.30272 8.10945 2.98328 7.20667 2.98328C6.29464 2.98328 5.51941 3.30272 4.88097 3.94161C4.24255 4.5805 3.92334 5.34994 3.92334 6.24994C3.92334 7.14994 4.24255 7.91939 4.88097 8.55828C5.51941 9.19717 6.29464 9.51661 7.20667 9.51661Z" fill="#757575" stroke="#757575" stroke-width="0.3"/>
</svg>
